<?xml version="1.0" encoding="UTF-8"?>
<svg xmlns="http://www.w3.org/2000/svg" viewBox="228.87 1037.35 237.66 363.22">
  <defs>
    <style>
      .cls-1 {
        fill: #f8a31f;
      }

      .cls-2 {
        fill: #7a4e57;
      }

      .cls-3 {
        fill: #772f35;
      }
    </style>
  </defs>
  <g>
    <path class="cls-2" d="M291.6,1152.97h0c12.65,0,22.93,10.27,22.93,22.93v71.65h-45.86v-71.65c0-12.65,10.27-22.93,22.93-22.93Z" transform="translate(-847.91 723.65) rotate(-53.65)"/>
    <path class="cls-2" d="M279.27,1308.01h0c12.65,0,22.93,10.27,22.93,22.93v49.37h-45.86v-49.37c0-12.65,10.27-22.93,22.93-22.93Z" transform="translate(-968.83 772.32) rotate(-53.65)"/>
    <path class="cls-2" d="M328.55,1101.43h0c12.65,0,22.93,10.27,22.93,22.93v71.65h-45.86v-71.65c0-12.65,10.27-22.93,22.93-22.93Z" transform="translate(-791.36 732.41) rotate(-53.65)"/>
    <path class="cls-2" d="M354.47,1353.57c-22.44,15.86-43.49,24.81-59.62,30.48l-20.47-40.15c19.8-9.99,43.31-22.39,53.69-29.51,76.73-52.7,97.58-156.71,45.59-233.88l39.18-26.4c66.58,98.82,38.95,230.71-58.36,299.46Z"/>
  </g>
</svg>
