<?xml version="1.0" encoding="UTF-8"?>
<svg xmlns="http://www.w3.org/2000/svg" viewBox="-36.28 -35.49 780.81 249.92">
  <defs>
    <style>
      .cls-1 {
        fill: #f8a31f;
      }

      .cls-2 {
        fill: #7a4e57;
      }

      .cls-3 {
        fill: #772f35;
      }
    </style>
  </defs>
  <g>
    <g>
      <g>
        <path class="cls-3" d="M110.91,118.9V23.64h113.64v20.21h-87.07v14.28h87.07v19.36h-87.07v21.2h87.07v20.21h-113.64Z"/>
        <path class="cls-3" d="M248.26,119.89c-3.82,0-7.63-.14-11.87-.42l.99-20.78c4.1.71,9.19,1.27,13,1.27,14.56,0,19.36-3.82,19.36-8.34s-3.82-7.63-14.28-13.71c-11.17-6.22-19.65-14.13-19.65-27.14,0-16.68,14.13-28.13,41.41-28.13,4.52,0,9.05.28,13.71.85l-.99,20.35c-4.24-.71-9.05-1.13-13.71-1.13-12.16,0-16.11,2.4-16.11,6.08,0,4.38,4.52,6.78,13.43,12.01,12.16,6.79,20.5,14.42,20.5,28.55,0,19.93-17.81,30.53-45.8,30.53Z"/>
        <path class="cls-3" d="M304.34,118.9V23.64h57.24v19.36h-33.07v15.55h33.07v18.38h-33.07v22.62h33.07v19.36h-57.24Z"/>
        <path class="cls-3" d="M464.56,118.9l-32.65-35.48h-28.83v35.48h-26.57V23.64h87.49c18.23,0,33.78,9.47,33.78,29.26,0,17.95-13.29,28.27-30.11,29.12h-4.24l36.61,36.89h-35.48ZM457.77,43.71h-54.7v20.78h55.69c7.49,0,13-3.25,13-10.74,0-6.5-5.65-10.03-13.99-10.03Z"/>
        <path class="cls-3" d="M548.55,43.99v74.91h-24.17V43.99h-19.36v-20.35h62.9v20.35h-19.36Z"/>
        <path class="cls-3" d="M639,121.44c-34.21,0-69.26-13.85-69.26-50.18s34.91-50.18,69.26-50.18,69.26,13.99,69.26,50.18-34.63,50.18-69.26,50.18ZM639,40.74c-25.16,0-41.27,11.17-41.27,30.53s16.11,30.53,41.27,30.53,40.99-11.03,40.99-30.53-16.11-30.53-40.99-30.53Z"/>
      </g>
      <g>
        <path class="cls-3" d="M21.4,46.08h0c5.9,0,10.69,4.79,10.69,10.69v33.4H10.71v-33.4c0-5.9,4.79-10.69,10.69-10.69Z" transform="translate(-46.15 44.98) rotate(-53.65)"/>
        <path class="cls-3" d="M38.62,22.06h0c5.9,0,10.69,4.79,10.69,10.69v33.4h-21.38v-33.4c0-5.9,4.79-10.69,10.69-10.69Z" transform="translate(-19.79 49.07) rotate(-53.65)"/>
        <path class="cls-3" d="M77.92,0l-18.26,12.31c24.24,35.98,14.52,84.46-21.25,109.03-2.83,1.94-7.76,4.73-13.2,7.63l-8.18-6.02c-4.75-3.5-11.44-2.48-14.94,2.27-3.5,4.75-2.48,11.44,2.27,14.94l18.54,13.64.02-.02v.02c7.53-2.65,17.34-6.81,27.8-14.21C96.07,107.55,108.95,46.06,77.92,0Z"/>
      </g>
    </g>
    <g>
      <path class="cls-1" d="M113.87,143.5h17.92v3.52h-13.92v7.8h13.64v3.52h-13.64v11.84h-4v-26.67Z"/>
      <path class="cls-1" d="M136.82,150.86h3.6v2.96c1.48-1.92,3.76-3.4,6.32-3.4v3.64c-.36-.08-.76-.12-1.24-.12-1.8,0-4.24,1.36-5.08,2.8v13.44h-3.6v-19.31Z"/>
      <path class="cls-1" d="M149.93,160.5c0-5.56,3.76-10.12,9.76-10.12s9.76,4.56,9.76,10.12-3.72,10.16-9.76,10.16-9.76-4.56-9.76-10.16ZM165.69,160.5c0-3.64-2.12-6.92-6-6.92s-6,3.28-6,6.92,2.16,6.96,6,6.96,6-3.28,6-6.96Z"/>
      <path class="cls-1" d="M173.88,167.42l10.08-13.4h-10.08v-3.16h14.84v2.68l-10.16,13.52h10.32v3.12h-15v-2.76Z"/>
      <path class="cls-1" d="M203.03,150.38c5.8,0,9.4,4.52,9.4,10.44v.88h-15.28c.28,3.28,2.68,6,6.56,6,2.04,0,4.28-.8,5.72-2.28l1.68,2.36c-1.92,1.88-4.64,2.88-7.76,2.88-5.76,0-10-4.08-10-10.16,0-5.6,4.04-10.12,9.68-10.12ZM197.11,159.1h11.8c-.08-2.56-1.8-5.76-5.88-5.76s-5.72,3.12-5.92,5.76Z"/>
      <path class="cls-1" d="M230.78,157.82c0-3.2-1.64-4.24-4.12-4.24-2.24,0-4.28,1.36-5.32,2.8v13.8h-3.6v-19.31h3.6v2.72c1.28-1.56,3.84-3.2,6.84-3.2,4.08,0,6.2,2.16,6.2,6.24v13.56h-3.6v-12.36Z"/>
      <path class="cls-1" d="M259.76,159.02l-10.44-15.52h4.6l7.84,11.92,7.76-11.92h4.64l-10.4,15.52v11.16h-4v-11.16Z"/>
      <path class="cls-1" d="M271.84,160.5c0-5.56,3.76-10.12,9.76-10.12s9.76,4.56,9.76,10.12-3.72,10.16-9.76,10.16-9.76-4.56-9.76-10.16ZM287.59,160.5c0-3.64-2.12-6.92-6-6.92s-6,3.28-6,6.92,2.16,6.96,6,6.96,6-3.28,6-6.96Z"/>
      <path class="cls-1" d="M298.27,172.49c1.6,1.84,3.56,2.56,6.2,2.56,3,0,6-1.44,6-5.52v-2.52c-1.48,1.92-3.76,3.32-6.36,3.32-5,0-8.6-3.68-8.6-10s3.6-9.96,8.6-9.96c2.52,0,4.8,1.2,6.36,3.28v-2.8h3.6v18.55c0,6.64-4.84,8.6-9.6,8.6-3.24,0-5.6-.68-7.92-2.88l1.72-2.64ZM310.46,156.42c-1-1.56-3.2-2.84-5.36-2.84-3.6,0-5.84,2.8-5.84,6.76s2.24,6.8,5.84,6.8c2.16,0,4.36-1.32,5.36-2.88v-7.84Z"/>
      <path class="cls-1" d="M333.61,167.53c-1.48,1.6-3.92,3.12-6.88,3.12-4.12,0-6.16-2.08-6.16-6.16v-13.64h3.6v12.44c0,3.2,1.6,4.16,4.08,4.16,2.24,0,4.28-1.28,5.36-2.72v-13.88h3.6v19.31h-3.6v-2.64Z"/>
      <path class="cls-1" d="M343.73,150.86h3.6v2.96c1.48-1.92,3.76-3.4,6.32-3.4v3.64c-.36-.08-.76-.12-1.24-.12-1.8,0-4.24,1.36-5.08,2.8v13.44h-3.6v-19.31Z"/>
      <path class="cls-1" d="M358.76,165.9v-11.88h-3.2v-3.16h3.2v-5.28h3.6v5.28h3.92v3.16h-3.92v11.08c0,1.36.64,2.36,1.88,2.36.84,0,1.6-.36,1.96-.76l.92,2.72c-.76.72-1.88,1.24-3.76,1.24-3.04,0-4.6-1.72-4.6-4.76Z"/>
      <path class="cls-1" d="M402.79,162.22c0,2,.72,3.72,2.76,3.72v4.32c-2.12.08-4.32-.64-5.12-3.64-1.72,2.64-4.72,4-8.36,4-5.8,0-10.64-2.92-10.64-8.68,0-2.64,2-5.2,4.64-6.08-2.48-1-3.92-3.44-3.92-5.88.04-5.56,4.96-8.16,10.32-8.16,4.76,0,9.88,1.68,9.92,7.68h-4.2c0-3.04-2.76-3.88-5.84-3.88-4.4,0-5.88,2.32-5.84,4.36,0,3.2,3.6,4.12,5.84,4.12h12.8v3.56h-2.36v4.56ZM385.83,161.98c0,3.12,2.84,4.56,6.44,4.56,2.24,0,6.32-1.04,6.32-4.32v-4.56h-6.48c-4.28,0-6.28,2.32-6.28,4.32Z"/>
      <path class="cls-1" d="M421.17,156.86c0-8.2,6.08-13.8,13.84-13.8,5.08,0,8.36,2.52,10.44,5.64l-3.4,1.8c-1.4-2.24-4.04-3.88-7.04-3.88-5.56,0-9.72,4.24-9.72,10.24s4.16,10.24,9.72,10.24c3,0,5.64-1.64,7.04-3.88l3.4,1.8c-2.12,3.12-5.36,5.64-10.44,5.64-7.76,0-13.84-5.6-13.84-13.8Z"/>
      <path class="cls-1" d="M462.08,168.05c-1.52,1.68-3.72,2.6-6.32,2.6-3.2,0-6.72-2.16-6.72-6.4s3.48-6.32,6.72-6.32c2.6,0,4.84.84,6.32,2.56v-3.2c0-2.4-1.96-3.84-4.72-3.84-2.2,0-4.08.84-5.8,2.56l-1.56-2.48c2.16-2.12,4.8-3.16,7.92-3.16,4.2,0,7.76,1.84,7.76,6.76v13.04h-3.6v-2.12ZM462.08,162.66c-1.08-1.44-2.96-2.2-4.96-2.2-2.6,0-4.44,1.56-4.44,3.84s1.84,3.84,4.44,3.84c2,0,3.88-.76,4.96-2.2v-3.28Z"/>
      <path class="cls-1" d="M473.11,154.02h-3.2v-3.16h3.2v-1.28c0-4.16,2.44-6.48,5.88-6.48,1.24,0,2.32.24,3.16.72l-.84,2.68c-.48-.28-1.08-.44-1.72-.44-1.8,0-2.88,1.2-2.88,3.52v1.28h3.92v3.16h-3.92v16.16h-3.6v-16.16Z"/>
      <path class="cls-1" d="M493.34,150.38c5.8,0,9.4,4.52,9.4,10.44v.88h-15.28c.28,3.28,2.68,6,6.56,6,2.04,0,4.28-.8,5.72-2.28l1.68,2.36c-1.92,1.88-4.64,2.88-7.76,2.88-5.76,0-10-4.08-10-10.16,0-5.6,4.04-10.12,9.68-10.12ZM487.42,159.1h11.8c-.08-2.56-1.8-5.76-5.88-5.76s-5.72,3.12-5.92,5.76ZM491.02,147.94l5.76-5.76h3.56l-6.68,5.76h-2.64Z"/>
    </g>
  </g>
</svg>
