<?xml version="1.0" encoding="UTF-8"?>
<svg id="Layer_1" data-name="Layer 1" xmlns="http://www.w3.org/2000/svg" viewBox="0 0 708.25 1384.06">
  <defs>
    <style>
      .cls-1 {
        fill: #f8a31f;
      }

      .cls-2 {
        fill: #7a4e57;
      }

      .cls-3 {
        fill: #772f35;
      }
    </style>
  </defs>
  <g>
    <g>
      <g>
        <path class="cls-3" d="M110.91,118.9V23.64h113.64v20.21h-87.07v14.28h87.07v19.36h-87.07v21.2h87.07v20.21h-113.64Z"/>
        <path class="cls-3" d="M248.26,119.89c-3.82,0-7.63-.14-11.87-.42l.99-20.78c4.1.71,9.19,1.27,13,1.27,14.56,0,19.36-3.82,19.36-8.34s-3.82-7.63-14.28-13.71c-11.17-6.22-19.65-14.13-19.65-27.14,0-16.68,14.13-28.13,41.41-28.13,4.52,0,9.05.28,13.71.85l-.99,20.35c-4.24-.71-9.05-1.13-13.71-1.13-12.16,0-16.11,2.4-16.11,6.08,0,4.38,4.52,6.78,13.43,12.01,12.16,6.79,20.5,14.42,20.5,28.55,0,19.93-17.81,30.53-45.8,30.53Z"/>
        <path class="cls-3" d="M304.34,118.9V23.64h57.24v19.36h-33.07v15.55h33.07v18.38h-33.07v22.62h33.07v19.36h-57.24Z"/>
        <path class="cls-3" d="M464.56,118.9l-32.65-35.48h-28.83v35.48h-26.57V23.64h87.49c18.23,0,33.78,9.47,33.78,29.26,0,17.95-13.29,28.27-30.11,29.12h-4.24l36.61,36.89h-35.48ZM457.77,43.71h-54.7v20.78h55.69c7.49,0,13-3.25,13-10.74,0-6.5-5.65-10.03-13.99-10.03Z"/>
        <path class="cls-3" d="M548.55,43.99v74.91h-24.17V43.99h-19.36v-20.35h62.9v20.35h-19.36Z"/>
        <path class="cls-3" d="M639,121.44c-34.21,0-69.26-13.85-69.26-50.18s34.91-50.18,69.26-50.18,69.26,13.99,69.26,50.18-34.63,50.18-69.26,50.18ZM639,40.74c-25.16,0-41.27,11.17-41.27,30.53s16.11,30.53,41.27,30.53,40.99-11.03,40.99-30.53-16.11-30.53-40.99-30.53Z"/>
      </g>
      <g>
        <path class="cls-3" d="M21.4,46.08h0c5.9,0,10.69,4.79,10.69,10.69v33.4H10.71v-33.4c0-5.9,4.79-10.69,10.69-10.69Z" transform="translate(-46.15 44.98) rotate(-53.65)"/>
        <path class="cls-3" d="M38.62,22.06h0c5.9,0,10.69,4.79,10.69,10.69v33.4h-21.38v-33.4c0-5.9,4.79-10.69,10.69-10.69Z" transform="translate(-19.79 49.07) rotate(-53.65)"/>
        <path class="cls-3" d="M77.92,0l-18.26,12.31c24.24,35.98,14.52,84.46-21.25,109.03-2.83,1.94-7.76,4.73-13.2,7.63l-8.18-6.02c-4.75-3.5-11.44-2.48-14.94,2.27-3.5,4.75-2.48,11.44,2.27,14.94l18.54,13.64.02-.02v.02c7.53-2.65,17.34-6.81,27.8-14.21C96.07,107.55,108.95,46.06,77.92,0Z"/>
      </g>
    </g>
    <g>
      <path class="cls-1" d="M113.87,143.5h17.92v3.52h-13.92v7.8h13.64v3.52h-13.64v11.84h-4v-26.67Z"/>
      <path class="cls-1" d="M136.82,150.86h3.6v2.96c1.48-1.92,3.76-3.4,6.32-3.4v3.64c-.36-.08-.76-.12-1.24-.12-1.8,0-4.24,1.36-5.08,2.8v13.44h-3.6v-19.31Z"/>
      <path class="cls-1" d="M149.93,160.5c0-5.56,3.76-10.12,9.76-10.12s9.76,4.56,9.76,10.12-3.72,10.16-9.76,10.16-9.76-4.56-9.76-10.16ZM165.69,160.5c0-3.64-2.12-6.92-6-6.92s-6,3.28-6,6.92,2.16,6.96,6,6.96,6-3.28,6-6.96Z"/>
      <path class="cls-1" d="M173.88,167.42l10.08-13.4h-10.08v-3.16h14.84v2.68l-10.16,13.52h10.32v3.12h-15v-2.76Z"/>
      <path class="cls-1" d="M203.03,150.38c5.8,0,9.4,4.52,9.4,10.44v.88h-15.28c.28,3.28,2.68,6,6.56,6,2.04,0,4.28-.8,5.72-2.28l1.68,2.36c-1.92,1.88-4.64,2.88-7.76,2.88-5.76,0-10-4.08-10-10.16,0-5.6,4.04-10.12,9.68-10.12ZM197.11,159.1h11.8c-.08-2.56-1.8-5.76-5.88-5.76s-5.72,3.12-5.92,5.76Z"/>
      <path class="cls-1" d="M230.78,157.82c0-3.2-1.64-4.24-4.12-4.24-2.24,0-4.28,1.36-5.32,2.8v13.8h-3.6v-19.31h3.6v2.72c1.28-1.56,3.84-3.2,6.84-3.2,4.08,0,6.2,2.16,6.2,6.24v13.56h-3.6v-12.36Z"/>
      <path class="cls-1" d="M259.76,159.02l-10.44-15.52h4.6l7.84,11.92,7.76-11.92h4.64l-10.4,15.52v11.16h-4v-11.16Z"/>
      <path class="cls-1" d="M271.84,160.5c0-5.56,3.76-10.12,9.76-10.12s9.76,4.56,9.76,10.12-3.72,10.16-9.76,10.16-9.76-4.56-9.76-10.16ZM287.59,160.5c0-3.64-2.12-6.92-6-6.92s-6,3.28-6,6.92,2.16,6.96,6,6.96,6-3.28,6-6.96Z"/>
      <path class="cls-1" d="M298.27,172.49c1.6,1.84,3.56,2.56,6.2,2.56,3,0,6-1.44,6-5.52v-2.52c-1.48,1.92-3.76,3.32-6.36,3.32-5,0-8.6-3.68-8.6-10s3.6-9.96,8.6-9.96c2.52,0,4.8,1.2,6.36,3.28v-2.8h3.6v18.55c0,6.64-4.84,8.6-9.6,8.6-3.24,0-5.6-.68-7.92-2.88l1.72-2.64ZM310.46,156.42c-1-1.56-3.2-2.84-5.36-2.84-3.6,0-5.84,2.8-5.84,6.76s2.24,6.8,5.84,6.8c2.16,0,4.36-1.32,5.36-2.88v-7.84Z"/>
      <path class="cls-1" d="M333.61,167.53c-1.48,1.6-3.92,3.12-6.88,3.12-4.12,0-6.16-2.08-6.16-6.16v-13.64h3.6v12.44c0,3.2,1.6,4.16,4.08,4.16,2.24,0,4.28-1.28,5.36-2.72v-13.88h3.6v19.31h-3.6v-2.64Z"/>
      <path class="cls-1" d="M343.73,150.86h3.6v2.96c1.48-1.92,3.76-3.4,6.32-3.4v3.64c-.36-.08-.76-.12-1.24-.12-1.8,0-4.24,1.36-5.08,2.8v13.44h-3.6v-19.31Z"/>
      <path class="cls-1" d="M358.76,165.9v-11.88h-3.2v-3.16h3.2v-5.28h3.6v5.28h3.92v3.16h-3.92v11.08c0,1.36.64,2.36,1.88,2.36.84,0,1.6-.36,1.96-.76l.92,2.72c-.76.72-1.88,1.24-3.76,1.24-3.04,0-4.6-1.72-4.6-4.76Z"/>
      <path class="cls-1" d="M402.79,162.22c0,2,.72,3.72,2.76,3.72v4.32c-2.12.08-4.32-.64-5.12-3.64-1.72,2.64-4.72,4-8.36,4-5.8,0-10.64-2.92-10.64-8.68,0-2.64,2-5.2,4.64-6.08-2.48-1-3.92-3.44-3.92-5.88.04-5.56,4.96-8.16,10.32-8.16,4.76,0,9.88,1.68,9.92,7.68h-4.2c0-3.04-2.76-3.88-5.84-3.88-4.4,0-5.88,2.32-5.84,4.36,0,3.2,3.6,4.12,5.84,4.12h12.8v3.56h-2.36v4.56ZM385.83,161.98c0,3.12,2.84,4.56,6.44,4.56,2.24,0,6.32-1.04,6.32-4.32v-4.56h-6.48c-4.28,0-6.28,2.32-6.28,4.32Z"/>
      <path class="cls-1" d="M421.17,156.86c0-8.2,6.08-13.8,13.84-13.8,5.08,0,8.36,2.52,10.44,5.64l-3.4,1.8c-1.4-2.24-4.04-3.88-7.04-3.88-5.56,0-9.72,4.24-9.72,10.24s4.16,10.24,9.72,10.24c3,0,5.64-1.64,7.04-3.88l3.4,1.8c-2.12,3.12-5.36,5.64-10.44,5.64-7.76,0-13.84-5.6-13.84-13.8Z"/>
      <path class="cls-1" d="M462.08,168.05c-1.52,1.68-3.72,2.6-6.32,2.6-3.2,0-6.72-2.16-6.72-6.4s3.48-6.32,6.72-6.32c2.6,0,4.84.84,6.32,2.56v-3.2c0-2.4-1.96-3.84-4.72-3.84-2.2,0-4.08.84-5.8,2.56l-1.56-2.48c2.16-2.12,4.8-3.16,7.92-3.16,4.2,0,7.76,1.84,7.76,6.76v13.04h-3.6v-2.12ZM462.08,162.66c-1.08-1.44-2.96-2.2-4.96-2.2-2.6,0-4.44,1.56-4.44,3.84s1.84,3.84,4.44,3.84c2,0,3.88-.76,4.96-2.2v-3.28Z"/>
      <path class="cls-1" d="M473.11,154.02h-3.2v-3.16h3.2v-1.28c0-4.16,2.44-6.48,5.88-6.48,1.24,0,2.32.24,3.16.72l-.84,2.68c-.48-.28-1.08-.44-1.72-.44-1.8,0-2.88,1.2-2.88,3.52v1.28h3.92v3.16h-3.92v16.16h-3.6v-16.16Z"/>
      <path class="cls-1" d="M493.34,150.38c5.8,0,9.4,4.52,9.4,10.44v.88h-15.28c.28,3.28,2.68,6,6.56,6,2.04,0,4.28-.8,5.72-2.28l1.68,2.36c-1.92,1.88-4.64,2.88-7.76,2.88-5.76,0-10-4.08-10-10.16,0-5.6,4.04-10.12,9.68-10.12ZM487.42,159.1h11.8c-.08-2.56-1.8-5.76-5.88-5.76s-5.72,3.12-5.92,5.76ZM491.02,147.94l5.76-5.76h3.56l-6.68,5.76h-2.64Z"/>
    </g>
  </g>
  <g>
    <g>
      <path class="cls-2" d="M316.95,535.93h0c7.52,0,13.62,6.1,13.62,13.62v42.56h-27.24v-42.56c0-7.52,6.1-13.62,13.62-13.62Z" transform="translate(-325.17 484.96) rotate(-53.65)"/>
      <path class="cls-2" d="M309.63,628.03h0c7.52,0,13.62,6.1,13.62,13.62v29.33h-27.24v-29.33c0-7.52,6.1-13.62,13.62-13.62Z" transform="translate(-397.01 513.88) rotate(-53.65)"/>
      <path class="cls-2" d="M338.9,505.31h0c7.52,0,13.62,6.1,13.62,13.62v42.56h-27.24v-42.56c0-7.52,6.1-13.62,13.62-13.62Z" transform="translate(-291.58 490.17) rotate(-53.65)"/>
      <path class="cls-2" d="M354.3,655.1c-13.33,9.42-25.83,14.74-35.42,18.11l-12.16-23.85c11.76-5.93,25.73-13.3,31.89-17.53,45.58-31.3,57.97-93.09,27.08-138.94l23.27-15.68c39.55,58.7,23.14,137.05-34.67,177.9Z"/>
    </g>
    <g>
      <path class="cls-1" d="M151.47,563.27c.77-9.38,7.83-13.1,14.63-12.66,6.96.41,13.63,5.31,12.84,14.92-.27,3.3-.58,7.1-.85,10.4l-27.47-2.26.85-10.4ZM174.2,571.22l.5-6.04c.55-6.71-4.16-9.94-9-10.22-4.64-.26-9.5,2.18-10.03,8.66l-.5,6.04,19.03,1.56Z"/>
      <path class="cls-1" d="M189.17,518.06l-5.99,19.46c-8.77-2.7-17.58-5.41-26.35-8.11l5.95-19.35,4.1,1.26-4.66,15.13,7.12,2.19,4.47-14.53,3.91,1.2-4.47,14.53,7.08,2.18,4.69-15.25,4.14,1.27Z"/>
      <path class="cls-1" d="M184.35,479.52c-2.28.22-4.56,1.98-5.98,4.48-1.79,3.24-1.74,6.33.57,7.6,2.34,1.29,4.48-1.03,6.68-3.95,3.43-4.58,7.42-8.54,12.83-5.55,5.39,3.03,4.7,9.08,1.92,14.11-2.55,4.62-5.93,7.38-11.21,7.34l-.33-3.96c3.88-.1,6.57-2.53,8.11-5.32,1.6-2.89,2.41-6.63-.63-8.31-2.62-1.45-5.06.85-7.37,3.98-3.3,4.43-7.02,8.31-12.19,5.45-5.02-2.73-4.18-8.79-1.78-13.13,1.92-3.48,4.68-6.5,9.04-6.75l.35,4.01Z"/>
      <path class="cls-1" d="M226.98,458.82l-13.28,15.44c-6.96-5.98-13.94-11.99-20.9-17.98l13.2-15.35,3.25,2.8-10.32,12,5.64,4.86,9.91-11.53,3.11,2.67-9.91,11.53,5.61,4.83,10.4-12.09,3.29,2.83Z"/>
      <path class="cls-1" d="M256.82,434.2l-4.11,3.12-12.44-2.52-4.64,3.52,5.76,7.59-3.51,2.66-16.68-21.98c3.42-2.59,6.83-5.13,10.25-7.73,5.08-3.86,10.39-2.4,13.2,1.3,2.38,3.14,3.08,7.45-.77,11.36l12.1,2.33.85.34ZM227.16,427.16l6.05,7.96,6.68-5.07c2.92-2.21,2.8-5.04,1.23-7.11-1.5-1.97-4.36-3.07-7.24-.88l-6.71,5.09Z"/>
      <path class="cls-1" d="M264.08,403.58l-8.17,3.9-1.72-3.59c7.14-3.41,13.19-6.3,20.33-9.71l1.71,3.59-8.14,3.89,10.17,21.29-4.02,1.92-10.17-21.29Z"/>
      <path class="cls-1" d="M320.9,395.33c1.72,7.24-1.11,14.91-10.42,17.12-9.31,2.21-15.32-3.53-17-10.58-1.94-8.16,2.37-15.42,10.46-17.33,9.17-2.14,15.25,3.54,16.97,10.79ZM309.54,408.51c6.67-1.58,8.34-6.96,7.13-12.09-1.17-4.94-5.22-9.4-11.81-7.96-6.21,1.47-8.51,6.59-7.12,12.45,1.2,4.73,5.17,9.17,11.8,7.6Z"/>
      <path class="cls-1" d="M359.01,395.38c.19-2.67,2.29-4.33,4.88-4.15,2.55.18,4.35,2.13,4.15,4.8-.19,2.63-2.24,4.26-4.79,4.08-2.59-.19-4.43-2.1-4.24-4.73Z"/>
      <path class="cls-1" d="M402.38,415.08l9.7-25.76,18.24,6.87-1.51,4.02-14.11-5.31-2.96,7.85,13.41,5.05-1.44,3.83-13.41-5.05-3.79,10.06-4.13-1.55Z"/>
      <path class="cls-1" d="M453.6,441.24l-4.35-2.78-1.93-12.55-4.91-3.14-5.13,8.03-3.72-2.38,14.87-23.26c3.62,2.31,7.18,4.64,10.79,6.95,5.37,3.44,5.84,8.92,3.34,12.84-2.12,3.32-5.93,5.47-10.93,3.2l1.99,12.16-.03.92ZM449.97,410.97l-5.39,8.43,7.07,4.52c3.09,1.97,5.7.89,7.1-1.3,1.34-2.09,1.38-5.15-1.68-7.1l-7.1-4.54Z"/>
      <path class="cls-1" d="M492.62,459.49c-5.32,5.2-13.36,6.73-20.05-.12-6.69-6.84-4.87-14.96.31-20.02,6-5.86,14.44-5.91,20.25.04,6.55,6.76,4.82,14.9-.51,20.1ZM475.47,456.53c4.79,4.9,10.27,3.57,14.04-.12,3.63-3.55,5.37-9.32.75-14.22-4.46-4.56-10.04-3.9-14.35.31-3.44,3.47-5.2,9.16-.44,14.03Z"/>
      <path class="cls-1" d="M513.79,464.77l10.71,17.04-1.7,1.07-26.14-1.47,8.07,12.83-3.57,2.24-11.38-18.1,2.1-1.32,25.72,1.41-7.25-11.54,3.43-2.16Z"/>
      <path class="cls-1" d="M514.68,528.43l-7.19-19.05c8.59-3.24,17.21-6.49,25.79-9.74l7.15,18.94-4.02,1.52-5.59-14.81-6.96,2.63,5.37,14.22-3.83,1.45-5.37-14.22-6.93,2.62,5.63,14.92-4.05,1.53Z"/>
      <path class="cls-1" d="M529.04,560.59l19.41-2.76.62,4.37-27.29,3.89-.47-3.31,17.05-18.22-19.26,2.74-.63-4.41,27.29-3.89.48,3.35-17.21,18.24Z"/>
      <path class="cls-1" d="M534.15,613.18l10.54,9.92-.97,5.23-.19-.04-13.81-13.69-11.11-2.06.8-4.34,11.11,2.06,17.74-7.53.19.03-.96,5.15-13.35,5.26Z"/>
      <path class="cls-1" d="M515.68,663.73c-6.86-2.88-11.39-9.69-7.68-18.52,3.71-8.82,11.88-10.3,18.57-7.49,7.73,3.25,11.05,11.01,7.83,18.67-3.68,8.66-11.85,10.22-18.72,7.34ZM511.74,646.78c-2.65,6.32.7,10.84,5.56,12.89,4.68,1.97,10.68,1.32,13.39-4.84,2.47-5.88-.3-10.76-5.86-13.1-4.53-1.82-10.46-1.23-13.1,5.05Z"/>
      <path class="cls-1" d="M500.93,699.71c2.72-.46,5.26-2.21,6.77-4.28,3.8-5.22,2.08-11.09-2.65-14.49-4.08-2.96-9.78-3.42-14,2.38-1.39,1.91-2.19,4.01-1.99,6.88l4.52,3.29,4.52-6.21,3.19,2.32-6.93,9.52-9.14-6.65c-.83-4.01-.25-7.83,2.48-11.58,5.95-8.18,13.97-7.75,19.89-3.45,6.43,4.68,8.92,12.77,3.39,20.38-2.15,2.96-5.45,5.14-9.37,5.79l-.67-3.9Z"/>
      <path class="cls-1" d="M472.43,736.71l-10.6-12.12c-5.33-6.1-3.97-12.68,1.19-16.88,4.73-3.92,11.26-4.4,16.42,1.49l10.59,12.12-3.29,2.87-10.6-12.12c-3.29-3.76-7.27-3.89-10.46-1.32-3.47,2.72-4.01,7.01-.57,10.95l10.59,12.12-3.29,2.87Z"/>
      <path class="cls-1" d="M420.29,736.31l4.54-2.46,11.92,4.39,5.13-2.78-4.54-8.39,3.88-2.1,13.15,24.29c-3.78,2.04-7.54,4.03-11.31,6.08-5.61,3.04-10.64.79-12.85-3.3-1.88-3.46-1.91-7.83,2.49-11.12l-11.61-4.15-.79-.47ZM448.55,747.8l-4.76-8.8-7.38,4c-3.22,1.74-3.53,4.56-2.3,6.84,1.18,2.18,3.84,3.7,7.03,1.97l7.41-4.01Z"/>
      <path class="cls-1" d="M408.47,765.42l8.67-2.61,1.14,3.81c-7.58,2.28-13.99,4.2-21.57,6.48l-1.15-3.81,8.64-2.59-6.78-22.59,4.26-1.28,6.78,22.59Z"/>
      <path class="cls-1" d="M337.12,758.3c.04-1.97-.63-3.68-2.64-3.72l.09-4.25c2.09-.04,4.24.72,4.97,3.69,1.75-2.56,4.72-3.84,8.31-3.77,5.71.12,10.41,3.09,10.3,8.75-.05,2.6-2.07,5.08-4.69,5.89,2.42,1.03,3.79,3.46,3.74,5.86-.15,5.47-5.05,7.93-10.32,7.83-4.69-.1-9.69-1.85-9.61-7.76l4.13.08c-.06,2.99,2.64,3.87,5.67,3.93,4.33.09,5.83-2.17,5.84-4.17.06-3.15-3.46-4.13-5.67-4.17-4.25-.09-8.39-.17-12.6-.26l.07-3.5,2.32.05.09-4.49ZM353.81,758.88c.06-3.07-2.7-4.54-6.25-4.62-2.2-.04-6.24.9-6.3,4.13l-.09,4.49c2.13.04,4.25.09,6.38.13,4.21.09,6.23-2.16,6.27-4.13Z"/>
      <path class="cls-1" d="M277.86,739.2c3.62-1.65,7.51-1.61,11.13-.29,9.39,3.43,11.24,11.45,8.79,18.27-2.45,6.82-9.36,11.96-18.61,8.58-3.48-1.27-6.37-3.8-8.03-7.38l3.75-1.65c1.19,2.49,3.32,4.23,5.72,5.11,6.58,2.41,11.35-1.34,13.06-6.13,1.69-4.74.6-10.47-6.09-12.92-2.4-.88-5.43-.85-7.91.29l-1.8-3.89Z"/>
      <path class="cls-1" d="M247.65,724.11l12.54,8.1,5.32-3.45,3.94,2.54-25.35,16.45-4.04-2.61,4.58-29.87,3.94,2.54-.92,6.29ZM244.61,742.54l12.01-7.85-9.79-6.33-2.22,14.18Z"/>
      <path class="cls-1" d="M234.84,706.52l-19.49,19.45-13.77-13.8,3.04-3.03,10.66,10.68,5.94-5.93-10.13-10.15,2.9-2.89,10.13,10.15,7.61-7.59,3.12,3.12Z"/>
      <path class="cls-1" d="M173.49,687.76l6.65.57,2.02,3.06-.16.11-5.94.43-2.69-4.08.13-.09ZM197.18,666.84l8.79,13.31-6.18,4.08-8.37-12.68-3.42,2.26,8.37,12.69-6.21,4.1-8.72-13.21-3.58,2.36,11.15,16.89c7.66-5.05,15.35-10.13,23-15.18l-11.22-16.99-3.61,2.39Z"/>
      <path class="cls-1" d="M175.45,636.19c-2.56.77-4.87-.59-5.61-3.08-.74-2.45.44-4.82,3.01-5.59,2.53-.76,4.78.58,5.51,3.03.75,2.49-.38,4.88-2.91,5.64Z"/>
    </g>
  </g>
  <g>
    <path class="cls-2" d="M291.6,1152.97h0c12.65,0,22.93,10.27,22.93,22.93v71.65h-45.86v-71.65c0-12.65,10.27-22.93,22.93-22.93Z" transform="translate(-847.91 723.65) rotate(-53.65)"/>
    <path class="cls-2" d="M279.27,1308.01h0c12.65,0,22.93,10.27,22.93,22.93v49.37h-45.86v-49.37c0-12.65,10.27-22.93,22.93-22.93Z" transform="translate(-968.83 772.32) rotate(-53.65)"/>
    <path class="cls-2" d="M328.55,1101.43h0c12.65,0,22.93,10.27,22.93,22.93v71.65h-45.86v-71.65c0-12.65,10.27-22.93,22.93-22.93Z" transform="translate(-791.36 732.41) rotate(-53.65)"/>
    <path class="cls-2" d="M354.47,1353.57c-22.44,15.86-43.49,24.81-59.62,30.48l-20.47-40.15c19.8-9.99,43.31-22.39,53.69-29.51,76.73-52.7,97.58-156.71,45.59-233.88l39.18-26.4c66.58,98.82,38.95,230.71-58.36,299.46Z"/>
  </g>
</svg>